<svg width="100%" height="100%" viewBox="0 0 256 256" version="1.1" xmlns="http://www.w3.org/2000/svg" xmlns:xlink="http://www.w3.org/1999/xlink" xml:space="preserve" xmlns:serif="http://www.serif.com/" style="fill-rule:evenodd;clip-rule:evenodd;stroke-linecap:round;stroke-linejoin:round;">
    <rect x="0" y="0" width="256" height="256" style="fill:none;"/>
    <path d="M74.402,80C91.745,74.572 109.827,71.873 128,72C146.172,71.873 164.254,74.572 181.598,80M181.597,176C164.254,181.428 146.172,184.127 128,184C109.828,184.127 91.746,181.428 74.402,176" style="fill:none;fill-rule:nonzero;stroke:white;stroke-width:16px;"/>
    <path d="M155.044,182.088L167.069,206.138C168.713,209.454 172.461,211.208 176.06,210.348C200.599,204.348 221.753,193.888 237.16,180.497C239.559,178.434 240.53,175.141 239.632,172.107L205.659,58.861C204.964,56.55 203.263,54.671 201.032,53.752C191.434,49.822 181.507,46.749 171.367,44.569C167.387,43.696 163.342,45.991 162.048,49.855L154.075,73.775M100.956,182.088L88.931,206.138C87.287,209.454 83.539,211.208 79.94,210.348C55.401,204.348 34.247,193.889 18.84,180.497C16.441,178.434 15.47,175.141 16.368,172.107L50.342,58.861C51.036,56.55 52.737,54.671 54.968,53.752C64.566,49.822 74.493,46.749 84.633,44.569C88.613,43.696 92.658,45.991 93.952,49.855L101.925,73.775" style="fill:none;fill-rule:nonzero;stroke:white;stroke-width:16px;"/>
    <path d="M100.956,182.088L88.931,206.138C87.287,209.454 83.539,211.208 79.94,210.348C55.401,204.348 34.247,193.889 18.84,180.497C16.441,178.434 15.47,175.141 16.368,172.107L50.342,58.861C51.036,56.55 52.737,54.671 54.968,53.752C64.566,49.822 74.493,46.749 84.633,44.569C88.613,43.696 92.658,45.991 93.952,49.855L101.925,73.775C119.228,71.408 136.772,71.408 154.075,73.775L162.048,49.855C163.342,45.991 167.387,43.696 171.368,44.569C181.507,46.749 191.434,49.822 201.032,53.752C203.263,54.671 204.964,56.55 205.659,58.861L239.632,172.107C240.53,175.141 239.559,178.434 237.16,180.497C221.753,193.888 200.599,204.348 176.06,210.348C172.461,211.208 168.713,209.454 167.069,206.138L155.044,182.088C146.087,183.371 137.049,184.01 128,184C118.951,184.01 109.914,183.371 100.956,182.088L100.956,182.088ZM96,132C102.623,132 108,137.377 108,144C108,150.623 102.623,156 96,156C89.377,156 84,150.623 84,144C84,137.377 89.377,132 96,132ZM160,132C166.623,132 172,137.377 172,144C172,150.623 166.623,156 160,156C153.377,156 148,150.623 148,144C148,137.377 153.377,132 160,132Z" style="fill:white;"/>
</svg>
